<svg id="visual" viewBox="0 0 900 600" width="900" height="600" xmlns="http://www.w3.org/2000/svg" xmlns:xlink="http://www.w3.org/1999/xlink" version="1.1"><rect x="0" y="0" width="900" height="600" fill="#001122"></rect><defs><linearGradient id="grad1_0" x1="33.3%" y1="0%" x2="100%" y2="100%"><stop offset="20%" stop-color="#001122" stop-opacity="1"></stop><stop offset="80%" stop-color="#001122" stop-opacity="1"></stop></linearGradient></defs><defs><linearGradient id="grad2_0" x1="0%" y1="0%" x2="66.7%" y2="100%"><stop offset="20%" stop-color="#001122" stop-opacity="1"></stop><stop offset="80%" stop-color="#001122" stop-opacity="1"></stop></linearGradient></defs><g transform="translate(900, 0)"><path d="M0 459.7C-64.3 457.5 -128.6 455.4 -175.9 424.7C-223.2 394 -253.5 334.9 -288.5 288.5C-323.5 242.1 -363.3 208.6 -392.6 162.6C-422 116.7 -440.8 58.3 -459.7 0L0 0Z" fill="#FF0066"></path></g><g transform="translate(0, 600)"><path d="M0 -459.7C48.9 -429.8 97.8 -399.8 158.8 -383.4C219.8 -367 292.9 -364.1 325.1 -325.1C357.2 -286.1 348.4 -211 364 -150.8C379.6 -90.6 419.7 -45.3 459.7 0L0 0Z" fill="#FF0066"></path></g></svg>