<svg id="visual" viewBox="0 0 900 600" width="900" height="600" xmlns="http://www.w3.org/2000/svg" xmlns:xlink="http://www.w3.org/1999/xlink" version="1.1"><rect x="0" y="0" width="900" height="600" fill="#001122"></rect><defs><linearGradient id="grad1_0" x1="33.3%" y1="0%" x2="100%" y2="100%"><stop offset="20%" stop-color="#001122" stop-opacity="1"></stop><stop offset="80%" stop-color="#001122" stop-opacity="1"></stop></linearGradient></defs><defs><linearGradient id="grad2_0" x1="0%" y1="0%" x2="66.7%" y2="100%"><stop offset="20%" stop-color="#001122" stop-opacity="1"></stop><stop offset="80%" stop-color="#001122" stop-opacity="1"></stop></linearGradient></defs><g transform="translate(900, 0)"><path d="M0 459.7C-77.1 442.8 -154.3 425.9 -225 389.7C-295.7 353.5 -360.1 298 -398.1 229.9C-436.2 161.7 -447.9 80.8 -459.7 0L0 0Z" fill="#7B2CBF"></path></g><g transform="translate(0, 600)"><path d="M0 -459.7C78.2 -444.7 156.4 -429.6 227 -393.2C297.6 -356.7 360.6 -298.9 398.1 -229.9C435.6 -160.8 447.7 -80.4 459.7 0L0 0Z" fill="#7B2CBF"></path></g></svg>